<svg xmlns="http://www.w3.org/2000/svg" xmlns:xlink="http://www.w3.org/1999/xlink" width="360" zoomAndPan="magnify" viewBox="0 0 270 80.249996" height="107" preserveAspectRatio="xMidYMid meet" version="1.0"><defs><g/><clipPath id="25bb1610e1"><path d="M 64 10 L 225.875 10 L 225.875 55 L 64 55 Z M 64 10 " clip-rule="nonzero"/></clipPath><clipPath id="ee46b7ae42"><rect x="0" width="162" y="0" height="45"/></clipPath><clipPath id="a6b88c09ae"><path d="M 30 1.1875 L 52 1.1875 L 52 33 L 30 33 Z M 30 1.1875 " clip-rule="nonzero"/></clipPath><clipPath id="9b33154ee7"><path d="M 5 1.1875 L 47 1.1875 L 47 14 L 5 14 Z M 5 1.1875 " clip-rule="nonzero"/></clipPath><clipPath id="35c8e71327"><path d="M 55 1.1875 L 80 1.1875 L 80 14 L 55 14 Z M 55 1.1875 " clip-rule="nonzero"/></clipPath><clipPath id="8b8b5d24e3"><path d="M 1.007812 15 L 83.855469 15 L 83.855469 60.113281 L 1.007812 60.113281 Z M 1.007812 15 " clip-rule="nonzero"/></clipPath><clipPath id="2d1da9e1f0"><rect x="0" width="226" y="0" height="61"/></clipPath></defs><g transform="matrix(1, 0, 0, 1, 21, 9)"><g clip-path="url(#2d1da9e1f0)"><g clip-path="url(#25bb1610e1)"><g transform="matrix(1, 0, 0, 1, 64, 10)"><g clip-path="url(#ee46b7ae42)"><g fill="#ffffff" fill-opacity="1"><g transform="translate(0.65426, 31.884421)"><g><path d="M 5.828125 0 L 5.828125 -15.28125 L 0.453125 -15.28125 L 0.453125 -19.484375 L 16.171875 -19.484375 L 16.171875 -15.28125 L 10.765625 -15.28125 L 10.765625 0 Z M 5.828125 0 "/></g></g></g><g fill="#ffffff" fill-opacity="1"><g transform="translate(17.249215, 31.884421)"><g><path d="M 12.96875 0 L 10.421875 -6.828125 L 7 -6.828125 L 7 0 L 2.0625 0 L 2.0625 -19.484375 L 11.40625 -19.484375 C 13.195312 -19.484375 14.550781 -19.234375 15.46875 -18.734375 C 16.382812 -18.234375 16.988281 -17.539062 17.28125 -16.65625 C 17.570312 -15.78125 17.71875 -14.609375 17.71875 -13.140625 C 17.71875 -11.773438 17.539062 -10.59375 17.1875 -9.59375 C 16.84375 -8.59375 16.15625 -7.867188 15.125 -7.421875 L 18.125 0 Z M 9.546875 -10.734375 C 10.554688 -10.734375 11.273438 -10.785156 11.703125 -10.890625 C 12.128906 -11.003906 12.40625 -11.21875 12.53125 -11.53125 C 12.664062 -11.84375 12.734375 -12.367188 12.734375 -13.109375 C 12.734375 -13.859375 12.675781 -14.390625 12.5625 -14.703125 C 12.457031 -15.015625 12.191406 -15.226562 11.765625 -15.34375 C 11.335938 -15.457031 10.613281 -15.515625 9.59375 -15.515625 L 7 -15.515625 L 7 -10.734375 Z M 9.546875 -10.734375 "/></g></g></g><g fill="#ffffff" fill-opacity="1"><g transform="translate(36.477843, 31.884421)"><g><path d="M 14.359375 0 L 13.1875 -3.6875 L 6.25 -3.6875 L 5.15625 0 L 0.21875 0 L 6.453125 -19.484375 L 13.140625 -19.484375 L 19.359375 0 Z M 9.765625 -15.125 L 9.625 -15.125 L 7.390625 -7.671875 L 12.03125 -7.671875 Z M 9.765625 -15.125 "/></g></g></g><g fill="#ffffff" fill-opacity="1"><g transform="translate(56.07462, 31.884421)"><g><path d="M 9.203125 0.21875 C 6.441406 0.21875 4 0.0585938 1.875 -0.25 L 1.875 -4.109375 C 4.175781 -3.878906 6.117188 -3.765625 7.703125 -3.765625 C 8.628906 -3.765625 9.335938 -3.800781 9.828125 -3.875 C 10.316406 -3.945312 10.664062 -4.070312 10.875 -4.25 C 11.0625 -4.394531 11.175781 -4.578125 11.21875 -4.796875 C 11.269531 -5.015625 11.296875 -5.320312 11.296875 -5.71875 C 11.296875 -6.1875 11.253906 -6.523438 11.171875 -6.734375 C 11.097656 -6.941406 10.945312 -7.085938 10.71875 -7.171875 C 10.5 -7.253906 10.109375 -7.335938 9.546875 -7.421875 L 5.953125 -7.875 C 4.660156 -8.019531 3.679688 -8.34375 3.015625 -8.84375 C 2.347656 -9.34375 1.894531 -9.988281 1.65625 -10.78125 C 1.414062 -11.570312 1.296875 -12.566406 1.296875 -13.765625 C 1.296875 -15.441406 1.609375 -16.710938 2.234375 -17.578125 C 2.859375 -18.453125 3.691406 -19.023438 4.734375 -19.296875 C 5.785156 -19.566406 7.125 -19.703125 8.75 -19.703125 C 9.9375 -19.703125 11.023438 -19.65625 12.015625 -19.5625 C 13.003906 -19.46875 14.085938 -19.316406 15.265625 -19.109375 L 15.265625 -15.34375 C 13.015625 -15.59375 11.171875 -15.71875 9.734375 -15.71875 C 8.222656 -15.71875 7.242188 -15.601562 6.796875 -15.375 C 6.546875 -15.257812 6.390625 -15.097656 6.328125 -14.890625 C 6.265625 -14.679688 6.234375 -14.390625 6.234375 -14.015625 C 6.234375 -13.546875 6.265625 -13.210938 6.328125 -13.015625 C 6.390625 -12.816406 6.53125 -12.671875 6.75 -12.578125 C 6.96875 -12.492188 7.351562 -12.414062 7.90625 -12.34375 L 12.03125 -11.828125 C 12.863281 -11.734375 13.546875 -11.5625 14.078125 -11.3125 C 14.617188 -11.070312 15.070312 -10.660156 15.4375 -10.078125 C 15.976562 -9.265625 16.25 -7.972656 16.25 -6.203125 C 16.25 -4.347656 15.957031 -2.953125 15.375 -2.015625 C 14.789062 -1.085938 14.003906 -0.484375 13.015625 -0.203125 C 12.035156 0.0742188 10.765625 0.21875 9.203125 0.21875 Z M 9.203125 0.21875 "/></g></g></g><g fill="#ffffff" fill-opacity="1"><g transform="translate(73.632425, 31.884421)"><g><path d="M 2.0625 0 L 2.0625 -19.484375 L 15.890625 -19.484375 L 15.890625 -15.484375 L 7 -15.484375 L 7 -11.828125 L 14.53125 -11.828125 L 14.53125 -7.84375 L 7 -7.84375 L 7 -3.984375 L 15.890625 -3.984375 L 15.890625 0 Z M 2.0625 0 "/></g></g></g><g fill="#ffffff" fill-opacity="1"><g transform="translate(91.048635, 31.884421)"><g><path d="M 14.359375 0 L 13.1875 -3.6875 L 6.25 -3.6875 L 5.15625 0 L 0.21875 0 L 6.453125 -19.484375 L 13.140625 -19.484375 L 19.359375 0 Z M 9.765625 -15.125 L 9.625 -15.125 L 7.390625 -7.671875 L 12.03125 -7.671875 Z M 9.765625 -15.125 "/></g></g></g><g fill="#ffffff" fill-opacity="1"><g transform="translate(110.645412, 31.884421)"><g><path d="M 2.0625 0 L 2.0625 -19.484375 L 7 -19.484375 L 7 -4.1875 L 14.71875 -4.1875 L 14.71875 0 Z M 2.0625 0 "/></g></g></g><g fill="#ffffff" fill-opacity="1"><g transform="translate(126.02265, 31.884421)"><g><path d="M 2.0625 0 L 2.0625 -19.484375 L 7 -19.484375 L 7 -4.1875 L 14.71875 -4.1875 L 14.71875 0 Z M 2.0625 0 "/></g></g></g><g fill="#ffffff" fill-opacity="1"><g transform="translate(141.399888, 31.884421)"><g><path d="M 14.359375 0 L 13.1875 -3.6875 L 6.25 -3.6875 L 5.15625 0 L 0.21875 0 L 6.453125 -19.484375 L 13.140625 -19.484375 L 19.359375 0 Z M 9.765625 -15.125 L 9.625 -15.125 L 7.390625 -7.671875 L 12.03125 -7.671875 Z M 9.765625 -15.125 "/></g></g></g></g></g></g><g fill="#ffffff" fill-opacity="1"><g transform="translate(70.520218, 54.583605)"><g><path d="M 3.3125 -4.90625 L 3.3125 -4.390625 L 1.1875 -4.390625 L 1.1875 -2.734375 L 2.921875 -2.734375 L 2.921875 -2.21875 L 1.1875 -2.21875 L 1.1875 0 L 0.546875 0 L 0.546875 -4.90625 Z M 3.3125 -4.90625 "/></g></g></g><g fill="#ffffff" fill-opacity="1"><g transform="translate(75.481027, 54.583605)"><g><path d="M 1.171875 -4.90625 L 1.171875 -1.796875 C 1.171875 -1.367188 1.273438 -1.046875 1.484375 -0.828125 C 1.703125 -0.617188 2 -0.515625 2.375 -0.515625 C 2.757812 -0.515625 3.054688 -0.617188 3.265625 -0.828125 C 3.484375 -1.046875 3.59375 -1.367188 3.59375 -1.796875 L 3.59375 -4.90625 L 4.234375 -4.90625 L 4.234375 -1.8125 C 4.234375 -1.40625 4.148438 -1.0625 3.984375 -0.78125 C 3.816406 -0.5 3.59375 -0.289062 3.3125 -0.15625 C 3.03125 -0.0195312 2.71875 0.046875 2.375 0.046875 C 2.03125 0.046875 1.71875 -0.0195312 1.4375 -0.15625 C 1.15625 -0.289062 0.929688 -0.5 0.765625 -0.78125 C 0.609375 -1.0625 0.53125 -1.40625 0.53125 -1.8125 L 0.53125 -4.90625 Z M 1.171875 -4.90625 "/></g></g></g><g fill="#ffffff" fill-opacity="1"><g transform="translate(81.646379, 54.583605)"><g><path d="M 3.5625 -4.90625 L 3.5625 -4.390625 L 2.234375 -4.390625 L 2.234375 0 L 1.578125 0 L 1.578125 -4.390625 L 0.234375 -4.390625 L 0.234375 -4.90625 Z M 3.5625 -4.90625 "/></g></g></g><g fill="#ffffff" fill-opacity="1"><g transform="translate(86.867816, 54.583605)"><g><path d="M 1.171875 -4.90625 L 1.171875 -1.796875 C 1.171875 -1.367188 1.273438 -1.046875 1.484375 -0.828125 C 1.703125 -0.617188 2 -0.515625 2.375 -0.515625 C 2.757812 -0.515625 3.054688 -0.617188 3.265625 -0.828125 C 3.484375 -1.046875 3.59375 -1.367188 3.59375 -1.796875 L 3.59375 -4.90625 L 4.234375 -4.90625 L 4.234375 -1.8125 C 4.234375 -1.40625 4.148438 -1.0625 3.984375 -0.78125 C 3.816406 -0.5 3.59375 -0.289062 3.3125 -0.15625 C 3.03125 -0.0195312 2.71875 0.046875 2.375 0.046875 C 2.03125 0.046875 1.71875 -0.0195312 1.4375 -0.15625 C 1.15625 -0.289062 0.929688 -0.5 0.765625 -0.78125 C 0.609375 -1.0625 0.53125 -1.40625 0.53125 -1.8125 L 0.53125 -4.90625 Z M 1.171875 -4.90625 "/></g></g></g><g fill="#ffffff" fill-opacity="1"><g transform="translate(93.033168, 54.583605)"><g><path d="M 3.125 0 L 1.953125 -2.015625 L 1.1875 -2.015625 L 1.1875 0 L 0.546875 0 L 0.546875 -4.90625 L 2.125 -4.90625 C 2.5 -4.90625 2.8125 -4.84375 3.0625 -4.71875 C 3.320312 -4.59375 3.515625 -4.421875 3.640625 -4.203125 C 3.765625 -3.992188 3.828125 -3.75 3.828125 -3.46875 C 3.828125 -3.125 3.726562 -2.820312 3.53125 -2.5625 C 3.34375 -2.3125 3.050781 -2.144531 2.65625 -2.0625 L 3.890625 0 Z M 1.1875 -2.515625 L 2.125 -2.515625 C 2.476562 -2.515625 2.738281 -2.597656 2.90625 -2.765625 C 3.082031 -2.941406 3.171875 -3.175781 3.171875 -3.46875 C 3.171875 -3.757812 3.082031 -3.984375 2.90625 -4.140625 C 2.738281 -4.304688 2.476562 -4.390625 2.125 -4.390625 L 1.1875 -4.390625 Z M 1.1875 -2.515625 "/></g></g></g><g fill="#ffffff" fill-opacity="1"><g transform="translate(98.726562, 54.583605)"><g><path d="M 1.1875 -4.390625 L 1.1875 -2.75 L 2.96875 -2.75 L 2.96875 -2.21875 L 1.1875 -2.21875 L 1.1875 -0.53125 L 3.1875 -0.53125 L 3.1875 0 L 0.546875 0 L 0.546875 -4.921875 L 3.1875 -4.921875 L 3.1875 -4.390625 Z M 1.1875 -4.390625 "/></g></g></g><g fill="#ffffff" fill-opacity="1"><g transform="translate(103.750767, 54.583605)"><g/></g></g><g fill="#ffffff" fill-opacity="1"><g transform="translate(107.04212, 54.583605)"><g><path d="M 2.09375 0.046875 C 1.769531 0.046875 1.476562 -0.0078125 1.21875 -0.125 C 0.96875 -0.238281 0.769531 -0.394531 0.625 -0.59375 C 0.476562 -0.800781 0.40625 -1.039062 0.40625 -1.3125 L 1.078125 -1.3125 C 1.109375 -1.082031 1.207031 -0.890625 1.375 -0.734375 C 1.539062 -0.578125 1.78125 -0.5 2.09375 -0.5 C 2.40625 -0.5 2.648438 -0.570312 2.828125 -0.71875 C 3.003906 -0.875 3.09375 -1.070312 3.09375 -1.3125 C 3.09375 -1.5 3.039062 -1.648438 2.9375 -1.765625 C 2.832031 -1.878906 2.703125 -1.96875 2.546875 -2.03125 C 2.390625 -2.09375 2.179688 -2.160156 1.921875 -2.234375 C 1.597656 -2.316406 1.335938 -2.398438 1.140625 -2.484375 C 0.941406 -2.566406 0.773438 -2.695312 0.640625 -2.875 C 0.503906 -3.0625 0.4375 -3.304688 0.4375 -3.609375 C 0.4375 -3.878906 0.503906 -4.117188 0.640625 -4.328125 C 0.773438 -4.535156 0.960938 -4.691406 1.203125 -4.796875 C 1.453125 -4.910156 1.738281 -4.96875 2.0625 -4.96875 C 2.519531 -4.96875 2.894531 -4.851562 3.1875 -4.625 C 3.476562 -4.394531 3.644531 -4.09375 3.6875 -3.71875 L 2.984375 -3.71875 C 2.960938 -3.90625 2.863281 -4.066406 2.6875 -4.203125 C 2.507812 -4.347656 2.28125 -4.421875 2 -4.421875 C 1.726562 -4.421875 1.503906 -4.351562 1.328125 -4.21875 C 1.160156 -4.082031 1.078125 -3.890625 1.078125 -3.640625 C 1.078125 -3.460938 1.128906 -3.316406 1.234375 -3.203125 C 1.335938 -3.085938 1.460938 -3 1.609375 -2.9375 C 1.753906 -2.882812 1.960938 -2.816406 2.234375 -2.734375 C 2.554688 -2.648438 2.816406 -2.5625 3.015625 -2.46875 C 3.210938 -2.382812 3.378906 -2.25 3.515625 -2.0625 C 3.660156 -1.882812 3.734375 -1.644531 3.734375 -1.34375 C 3.734375 -1.101562 3.671875 -0.875 3.546875 -0.65625 C 3.421875 -0.445312 3.234375 -0.273438 2.984375 -0.140625 C 2.734375 -0.015625 2.4375 0.046875 2.09375 0.046875 Z M 2.09375 0.046875 "/></g></g></g><g fill="#ffffff" fill-opacity="1"><g transform="translate(112.587588, 54.583605)"><g><path d="M 3.984375 -4.90625 L 2.375 -1.859375 L 2.375 0 L 1.734375 0 L 1.734375 -1.859375 L 0.140625 -4.90625 L 0.84375 -4.90625 L 2.0625 -2.421875 L 3.265625 -4.90625 Z M 3.984375 -4.90625 "/></g></g></g><g fill="#ffffff" fill-opacity="1"><g transform="translate(118.111921, 54.583605)"><g><path d="M 2.09375 0.046875 C 1.769531 0.046875 1.476562 -0.0078125 1.21875 -0.125 C 0.96875 -0.238281 0.769531 -0.394531 0.625 -0.59375 C 0.476562 -0.800781 0.40625 -1.039062 0.40625 -1.3125 L 1.078125 -1.3125 C 1.109375 -1.082031 1.207031 -0.890625 1.375 -0.734375 C 1.539062 -0.578125 1.78125 -0.5 2.09375 -0.5 C 2.40625 -0.5 2.648438 -0.570312 2.828125 -0.71875 C 3.003906 -0.875 3.09375 -1.070312 3.09375 -1.3125 C 3.09375 -1.5 3.039062 -1.648438 2.9375 -1.765625 C 2.832031 -1.878906 2.703125 -1.96875 2.546875 -2.03125 C 2.390625 -2.09375 2.179688 -2.160156 1.921875 -2.234375 C 1.597656 -2.316406 1.335938 -2.398438 1.140625 -2.484375 C 0.941406 -2.566406 0.773438 -2.695312 0.640625 -2.875 C 0.503906 -3.0625 0.4375 -3.304688 0.4375 -3.609375 C 0.4375 -3.878906 0.503906 -4.117188 0.640625 -4.328125 C 0.773438 -4.535156 0.960938 -4.691406 1.203125 -4.796875 C 1.453125 -4.910156 1.738281 -4.96875 2.0625 -4.96875 C 2.519531 -4.96875 2.894531 -4.851562 3.1875 -4.625 C 3.476562 -4.394531 3.644531 -4.09375 3.6875 -3.71875 L 2.984375 -3.71875 C 2.960938 -3.90625 2.863281 -4.066406 2.6875 -4.203125 C 2.507812 -4.347656 2.28125 -4.421875 2 -4.421875 C 1.726562 -4.421875 1.503906 -4.351562 1.328125 -4.21875 C 1.160156 -4.082031 1.078125 -3.890625 1.078125 -3.640625 C 1.078125 -3.460938 1.128906 -3.316406 1.234375 -3.203125 C 1.335938 -3.085938 1.460938 -3 1.609375 -2.9375 C 1.753906 -2.882812 1.960938 -2.816406 2.234375 -2.734375 C 2.554688 -2.648438 2.816406 -2.5625 3.015625 -2.46875 C 3.210938 -2.382812 3.378906 -2.25 3.515625 -2.0625 C 3.660156 -1.882812 3.734375 -1.644531 3.734375 -1.34375 C 3.734375 -1.101562 3.671875 -0.875 3.546875 -0.65625 C 3.421875 -0.445312 3.234375 -0.273438 2.984375 -0.140625 C 2.734375 -0.015625 2.4375 0.046875 2.09375 0.046875 Z M 2.09375 0.046875 "/></g></g></g><g fill="#ffffff" fill-opacity="1"><g transform="translate(123.65739, 54.583605)"><g><path d="M 3.5625 -4.90625 L 3.5625 -4.390625 L 2.234375 -4.390625 L 2.234375 0 L 1.578125 0 L 1.578125 -4.390625 L 0.234375 -4.390625 L 0.234375 -4.90625 Z M 3.5625 -4.90625 "/></g></g></g><g fill="#ffffff" fill-opacity="1"><g transform="translate(128.878826, 54.583605)"><g><path d="M 1.1875 -4.390625 L 1.1875 -2.75 L 2.96875 -2.75 L 2.96875 -2.21875 L 1.1875 -2.21875 L 1.1875 -0.53125 L 3.1875 -0.53125 L 3.1875 0 L 0.546875 0 L 0.546875 -4.921875 L 3.1875 -4.921875 L 3.1875 -4.390625 Z M 1.1875 -4.390625 "/></g></g></g><g fill="#ffffff" fill-opacity="1"><g transform="translate(133.903031, 54.583605)"><g><path d="M 5.53125 -4.875 L 5.53125 0 L 4.890625 0 L 4.890625 -3.640625 L 3.265625 0 L 2.8125 0 L 1.1875 -3.640625 L 1.1875 0 L 0.546875 0 L 0.546875 -4.875 L 1.234375 -4.875 L 3.03125 -0.84375 L 4.84375 -4.875 Z M 5.53125 -4.875 "/></g></g></g><g fill="#ffffff" fill-opacity="1"><g transform="translate(141.378583, 54.583605)"><g><path d="M 2.09375 0.046875 C 1.769531 0.046875 1.476562 -0.0078125 1.21875 -0.125 C 0.96875 -0.238281 0.769531 -0.394531 0.625 -0.59375 C 0.476562 -0.800781 0.40625 -1.039062 0.40625 -1.3125 L 1.078125 -1.3125 C 1.109375 -1.082031 1.207031 -0.890625 1.375 -0.734375 C 1.539062 -0.578125 1.78125 -0.5 2.09375 -0.5 C 2.40625 -0.5 2.648438 -0.570312 2.828125 -0.71875 C 3.003906 -0.875 3.09375 -1.070312 3.09375 -1.3125 C 3.09375 -1.5 3.039062 -1.648438 2.9375 -1.765625 C 2.832031 -1.878906 2.703125 -1.96875 2.546875 -2.03125 C 2.390625 -2.09375 2.179688 -2.160156 1.921875 -2.234375 C 1.597656 -2.316406 1.335938 -2.398438 1.140625 -2.484375 C 0.941406 -2.566406 0.773438 -2.695312 0.640625 -2.875 C 0.503906 -3.0625 0.4375 -3.304688 0.4375 -3.609375 C 0.4375 -3.878906 0.503906 -4.117188 0.640625 -4.328125 C 0.773438 -4.535156 0.960938 -4.691406 1.203125 -4.796875 C 1.453125 -4.910156 1.738281 -4.96875 2.0625 -4.96875 C 2.519531 -4.96875 2.894531 -4.851562 3.1875 -4.625 C 3.476562 -4.394531 3.644531 -4.09375 3.6875 -3.71875 L 2.984375 -3.71875 C 2.960938 -3.90625 2.863281 -4.066406 2.6875 -4.203125 C 2.507812 -4.347656 2.28125 -4.421875 2 -4.421875 C 1.726562 -4.421875 1.503906 -4.351562 1.328125 -4.21875 C 1.160156 -4.082031 1.078125 -3.890625 1.078125 -3.640625 C 1.078125 -3.460938 1.128906 -3.316406 1.234375 -3.203125 C 1.335938 -3.085938 1.460938 -3 1.609375 -2.9375 C 1.753906 -2.882812 1.960938 -2.816406 2.234375 -2.734375 C 2.554688 -2.648438 2.816406 -2.5625 3.015625 -2.46875 C 3.210938 -2.382812 3.378906 -2.25 3.515625 -2.0625 C 3.660156 -1.882812 3.734375 -1.644531 3.734375 -1.34375 C 3.734375 -1.101562 3.671875 -0.875 3.546875 -0.65625 C 3.421875 -0.445312 3.234375 -0.273438 2.984375 -0.140625 C 2.734375 -0.015625 2.4375 0.046875 2.09375 0.046875 Z M 2.09375 0.046875 "/></g></g></g><g clip-path="url(#a6b88c09ae)"><path fill="#ffffff" d="M 44.792969 25.121094 L 51.816406 1.277344 L 39.351562 1.277344 L 30.1875 32.386719 C 34.535156 29.875 39.453125 27.414062 44.792969 25.121094 " fill-opacity="1" fill-rule="nonzero"/></g><path fill="#f2421b" d="M 28.191406 39.15625 L 23.460938 55.21875 L 35.925781 55.21875 L 43.425781 29.753906 C 37.511719 32.808594 32.347656 36.007812 28.191406 39.15625 " fill-opacity="1" fill-rule="nonzero"/><g clip-path="url(#9b33154ee7)"><path fill="#ffffff" d="M 46.269531 1.1875 L 17.679688 1.1875 C 10.792969 1.1875 5.214844 6.769531 5.214844 13.652344 L 42.597656 13.652344 L 46.269531 1.1875 " fill-opacity="1" fill-rule="nonzero"/></g><g clip-path="url(#35c8e71327)"><path fill="#f2421b" d="M 58.734375 1.1875 L 55.0625 13.652344 L 67.238281 13.652344 C 74.125 13.652344 79.703125 8.070312 79.703125 1.1875 L 58.734375 1.1875 " fill-opacity="1" fill-rule="nonzero"/></g><g clip-path="url(#8b8b5d24e3)"><path fill="#ffffff" d="M 7.921875 57.0625 C 4.769531 48.46875 24.773438 33.222656 52.605469 23.011719 C 63.898438 18.867188 74.742188 16.1875 83.855469 15.042969 C 73.855469 14.710938 59.203125 17.5 43.648438 23.210938 C 17.308594 32.875 -1.644531 47.246094 1.3125 55.304688 C 2.320312 58.050781 5.742188 59.707031 10.855469 60.320312 C 9.40625 59.464844 8.40625 58.378906 7.921875 57.0625 " fill-opacity="1" fill-rule="nonzero"/></g></g></g></svg>