<?xml version="1.0" encoding="UTF-8"?>
<svg id="Layer_1" xmlns="http://www.w3.org/2000/svg" version="1.1" viewBox="0 0 170.43 50.87">
  <!-- Generator: Adobe Illustrator 29.5.1, SVG Export Plug-In . SVG Version: 2.1.0 Build 141)  -->
  <defs>
    <style>
      .st0 {
        fill: none;
      }

      .st1 {
        fill: #3496d0;
      }

      .st2 {
        fill: #6dabd9;
      }

      .st3 {
        fill: #3cb1e1;
      }

      .st4 {
        fill: #0b2362;
      }

      .st5 {
        fill: #164371;
      }
    </style>
  </defs>
  <path class="st3" d="M87.28,11.01v1.01c0,.13.1.25.23.25.46.03.91.23,1.27.56l1.43,1.36c.9.86,1.34,2.1,1.21,3.34l-.02.21c0,.08.05.14.13.14h1.39c.08,0,.13-.07.13-.14l-.02-.21c-.14-1.25.31-2.49,1.21-3.34l1.43-1.36c.35-.34.8-.52,1.27-.56.13,0,.23-.12.23-.25v-1.01c0-.15-.13-.27-.28-.25-.42.06-.85.06-1.28,0l-2.14-.27c-.81-.1-1.64-.1-2.45,0l-2.14.27c-.42.05-.86.05-1.28,0-.15-.02-.28.1-.28.25h0ZM92.2,10.97c.71,0,1.27.58,1.27,1.3s-.57,1.3-1.27,1.3-1.27-.58-1.27-1.3.57-1.3,1.27-1.3Z"/>
  <g>
    <g>
      <path class="st4" d="M5.7,17.82c-.16.11-.35.24-.56.39-.22.15-.42.27-.61.36-.26.11-.49.2-.72.26s-.53.09-.94.09c-.64,0-1.17-.19-1.57-.57-.41-.39-.61-.88-.61-1.49s.15-1.2.43-1.65c.29-.45.72-.81,1.28-1.08.53-.26,1.17-.43,1.91-.54.74-.11,1.53-.2,2.39-.25,0-.03.02-.08.03-.14.02-.07.02-.14.02-.23,0-.35-.15-.58-.45-.72-.31-.14-.75-.21-1.35-.21-.41,0-.86.07-1.35.22-.49.15-.87.27-1.12.37h-.23l.37-1.94c.29-.08.74-.17,1.34-.27.6-.1,1.21-.15,1.81-.15,1.22,0,2.11.17,2.67.5s.85.86.85,1.56c0,.1,0,.23-.02.38-.02.16-.04.29-.07.41l-1.22,5.57h-2.47l.19-.87h0ZM6.36,14.83c-.44.04-.86.09-1.25.14s-.72.13-.99.24c-.28.11-.49.26-.64.45s-.22.45-.22.77c0,.29.1.48.3.59s.48.17.86.17c.25,0,.5-.06.79-.18.28-.12.54-.27.79-.45l.38-1.73h-.02Z"/>
      <path class="st4" d="M19.75,10.51l-1.79,8.18h-2.5l.2-.9c-.25.17-.49.33-.73.47s-.46.27-.67.36c-.27.12-.51.2-.73.24-.22.04-.43.06-.65.06-.68,0-1.22-.17-1.61-.51-.4-.35-.59-.86-.59-1.53,0-.19,0-.36.03-.51.02-.16.05-.34.09-.52l1.17-5.33h2.5l-.89,4.06c-.07.31-.12.58-.16.8s-.05.42-.05.57c0,.32.07.55.22.69.15.15.42.22.83.22.2,0,.43-.05.7-.14s.55-.23.86-.41l1.27-5.8h2.52Z"/>
      <path class="st4" d="M23.27,18.85c-.86,0-1.47-.15-1.84-.44s-.55-.74-.55-1.33c0-.16,0-.31.03-.45s.05-.32.09-.51l.85-3.87h-1.03l.38-1.73h1.02l.51-2.34h2.49l-.5,2.34h2.32l-.38,1.73h-2.32l-.65,2.95c-.05.21-.09.41-.13.61-.04.21-.06.39-.06.52,0,.3.08.49.23.61.16.12.4.17.71.17.13,0,.3-.03.5-.08.21-.05.38-.11.5-.17h.21l-.39,1.76c-.28.07-.57.13-.89.17s-.68.06-1.12.06h0Z"/>
      <path class="st4" d="M35.65,13.51c0,.77-.12,1.48-.37,2.15-.25.67-.58,1.25-1.03,1.73-.45.5-.99.89-1.6,1.16s-1.31.41-2.12.41c-1.16,0-2.04-.3-2.65-.88s-.92-1.39-.92-2.42c0-.73.12-1.42.35-2.08s.57-1.24,1.02-1.74c.43-.49.97-.88,1.61-1.17.63-.29,1.35-.42,2.13-.42,1.16,0,2.05.29,2.66.86s.92,1.37.92,2.39h0ZM32.42,16.18c.21-.34.38-.71.47-1.12.11-.41.16-.89.16-1.47,0-.5-.1-.89-.31-1.16s-.53-.41-.99-.41c-.35,0-.65.09-.92.27s-.49.43-.7.76c-.19.31-.34.68-.44,1.14s-.16.92-.16,1.39c0,.56.12.96.36,1.2s.55.37.97.37c.3,0,.58-.09.86-.26s.51-.42.7-.72h0Z"/>
      <path class="st4" d="M39.39,18.92c-.66,0-1.3-.07-1.93-.2-.62-.13-1.1-.29-1.42-.45l.47-2.15h.23c.1.09.23.2.39.31.16.11.38.23.66.35.25.11.52.21.85.29.33.08.67.12,1.04.12.55,0,.98-.07,1.26-.21s.42-.33.42-.58c0-.2-.1-.35-.3-.44-.2-.1-.6-.23-1.23-.38-1.06-.26-1.78-.57-2.16-.93-.39-.37-.58-.82-.58-1.36,0-.92.4-1.65,1.18-2.18.78-.53,1.84-.8,3.17-.8.58,0,1.16.06,1.74.19.58.13,1.01.26,1.27.4l-.45,2.07h-.22c-.33-.27-.72-.48-1.19-.65s-.94-.25-1.42-.25c-.53,0-.94.07-1.22.2s-.42.34-.42.61c0,.22.12.38.37.49s.63.23,1.16.36c.98.23,1.68.5,2.11.85.42.34.64.82.64,1.43,0,.91-.4,1.63-1.19,2.16s-1.86.79-3.2.79h0Z"/>
      <path class="st4" d="M47.74,18.85c-.86,0-1.47-.15-1.84-.44s-.55-.74-.55-1.33c0-.16,0-.31.03-.45s.05-.32.09-.51l.85-3.87h-1.03l.38-1.73h1.02l.51-2.34h2.49l-.5,2.34h2.32l-.38,1.73h-2.32l-.65,2.95c-.05.21-.09.41-.13.61s-.06.39-.06.52c0,.3.08.49.23.61.16.12.4.17.71.17.13,0,.3-.03.5-.08s.38-.11.5-.17h.21l-.39,1.76c-.28.07-.57.13-.89.17s-.68.06-1.12.06h0Z"/>
      <path class="st4" d="M58.07,13.01h-.22c-.11-.04-.27-.07-.46-.09s-.41-.03-.6-.03c-.33,0-.64.03-.94.08s-.61.13-.94.25l-1.21,5.49h-2.5l1.8-8.18h2.5l-.27,1.21c.46-.37.94-.66,1.4-.89s.94-.35,1.4-.35h.3c.11,0,.21,0,.29.02l-.55,2.5h0Z"/>
      <path class="st4" d="M63.1,17.82c-.16.11-.35.24-.56.39s-.42.27-.61.36c-.26.11-.49.2-.72.26s-.53.09-.94.09c-.64,0-1.17-.19-1.57-.57s-.61-.88-.61-1.49.15-1.2.43-1.65c.29-.45.72-.81,1.28-1.08.53-.26,1.17-.43,1.91-.54.74-.11,1.53-.2,2.39-.25,0-.03.02-.08.03-.14.02-.07.02-.14.02-.23,0-.35-.15-.58-.45-.72-.31-.14-.75-.21-1.35-.21-.41,0-.86.07-1.35.22-.49.15-.87.27-1.12.37h-.23l.37-1.94c.29-.08.74-.17,1.34-.27s1.21-.15,1.81-.15c1.22,0,2.11.17,2.67.5s.85.86.85,1.56c0,.1,0,.23-.02.38-.02.16-.04.29-.07.41l-1.22,5.57h-2.47l.19-.87h0ZM63.76,14.83c-.44.04-.86.09-1.25.14s-.72.13-.99.24c-.28.11-.49.26-.64.45s-.22.45-.22.77c0,.29.1.48.3.59s.48.17.86.17c.25,0,.5-.06.79-.18.28-.12.54-.27.79-.45l.38-1.73h-.02Z"/>
      <path class="st4" d="M77.66,7.35l-2.48,11.35h-2.5l.19-.85c-.24.16-.44.31-.63.43-.18.13-.39.25-.6.36-.21.1-.42.17-.61.22-.2.05-.44.07-.72.07-.75,0-1.34-.26-1.8-.77-.44-.51-.67-1.25-.67-2.19,0-.78.12-1.51.36-2.19.24-.68.56-1.28.98-1.81.41-.51.88-.92,1.43-1.22s1.13-.45,1.73-.45c.42,0,.79.05,1.11.14s.63.23.97.42l.76-3.49h2.5ZM74.06,12.43c-.13-.07-.31-.13-.52-.19-.22-.06-.41-.08-.57-.08-.4,0-.75.09-1.07.28s-.58.43-.81.76c-.2.29-.36.65-.46,1.1-.12.44-.17.87-.17,1.28,0,.49.11.85.33,1.07s.54.34.99.34c.23,0,.46-.05.71-.16s.48-.24.71-.38l.88-4.01h0Z"/>
    </g>
    <g>
      <path class="st4" d="M17.85,25.32h-.04c-.1-.03-.2-.05-.29-.06s-.2-.02-.33-.02c-.25,0-.5.06-.77.18-.27.12-.52.26-.77.42l-1.25,3.29h-.75l1.75-4.64h.75l-.26.68c.4-.26.72-.43.98-.53s.5-.15.73-.15c.13,0,.23,0,.28,0,.06,0,.14.02.25.04l-.3.77h0Z"/>
      <path class="st4" d="M20.28,29.24c-.61,0-1.08-.15-1.37-.45-.31-.31-.41-.74-.32-1.32.14-.85.5-1.58,1.12-2.18.61-.61,1.29-.91,2.06-.91.5,0,.87.13,1.1.4.23.26.3.63.23,1.11,0,.08-.05.22-.1.4-.05.18-.12.39-.21.62h-3.27c-.03.08-.05.16-.07.24s-.03.15-.04.22c-.06.39,0,.69.2.92.19.23.49.34.92.34.3,0,.6-.06.93-.18s.61-.26.84-.41h.04l-.3.84c-.14.05-.27.1-.38.14-.11.04-.26.08-.42.13-.17.04-.33.07-.45.1-.13.02-.3.03-.48.03h0ZM22.24,26.3c.03-.08.05-.15.06-.21s.03-.12.04-.18c.05-.3,0-.52-.12-.69-.13-.17-.37-.25-.71-.25-.38,0-.73.12-1.06.37s-.58.56-.75.96h2.54Z"/>
      <path class="st4" d="M29.14,25.55c0,.07-.03.16-.06.27s-.06.22-.1.3l-1.15,3.01h-.74l1-2.64c.06-.15.1-.28.14-.39.03-.11.06-.22.08-.33.04-.23,0-.41-.08-.52-.09-.12-.28-.18-.56-.18-.2,0-.43.06-.69.18-.27.12-.52.26-.78.42l-1.31,3.46h-.75l1.77-4.64h.75l-.2.51c.32-.21.61-.37.87-.47.27-.11.53-.17.79-.17.39,0,.67.1.86.31s.25.49.19.88h-.02Z"/>
      <path class="st4" d="M34.41,24.5l-.24.63h-1.54l-.82,2.14c-.04.11-.09.23-.13.38-.04.14-.07.25-.09.34-.03.2,0,.36.08.45s.26.15.52.15c.11,0,.24-.02.4-.06.16-.04.27-.07.32-.09h.04l-.25.67c-.16.04-.32.07-.49.1-.17.03-.33.04-.45.04-.37,0-.63-.08-.81-.25s-.23-.43-.18-.79c0-.09.03-.18.06-.27.03-.09.06-.19.1-.3l.95-2.49h-.5l.24-.63h.5l.5-1.33h.75l-.51,1.33h1.54l.02-.03Z"/>
      <path class="st4" d="M41.43,28.64c-.08.05-.19.11-.33.19-.14.08-.28.15-.41.21-.15.06-.31.12-.47.16-.18.04-.37.07-.58.07-.36,0-.62-.11-.81-.33s-.25-.49-.2-.84c.06-.37.19-.68.39-.93.2-.26.45-.46.79-.62.33-.16.7-.27,1.14-.35.43-.07.92-.12,1.47-.13.03-.08.05-.15.07-.2.02-.06.04-.12.05-.18.02-.13,0-.24-.02-.33-.04-.08-.1-.15-.19-.2-.09-.05-.19-.08-.31-.1-.12-.02-.26-.03-.41-.03-.23,0-.49.04-.79.12-.31.08-.55.15-.74.23h-.04l.27-.78c.16-.04.39-.09.69-.14s.58-.08.85-.08c.55,0,.95.09,1.2.27s.34.46.28.86c0,.08-.03.16-.06.24-.03.09-.05.17-.08.24l-1.2,3.14h-.74l.19-.49h0ZM42.18,26.68c-.42.02-.78.05-1.11.1-.33.05-.6.12-.82.21-.23.09-.42.22-.55.38-.14.16-.23.36-.26.58-.03.2,0,.36.12.45.11.11.31.16.58.16.24,0,.49-.06.76-.17s.52-.25.77-.41c0,0,.5-1.3.5-1.3Z"/>
      <path class="st4" d="M50.32,29.23c-.28,0-.52-.03-.73-.1-.21-.07-.38-.18-.51-.33-.13-.15-.23-.33-.28-.54s-.05-.47,0-.76c.07-.43.2-.84.39-1.22s.42-.71.71-.99c.28-.28.59-.49.96-.66.37-.16.74-.25,1.14-.25.26,0,.49.04.71.11.22.08.41.17.56.27l-.3.84h-.04s-.1-.11-.17-.17c-.07-.07-.16-.13-.26-.19-.1-.06-.22-.11-.34-.15-.13-.04-.28-.06-.44-.06-.51,0-.97.23-1.36.68-.4.45-.64,1.01-.75,1.65-.06.39,0,.69.15.9s.42.32.77.32c.17,0,.34-.02.51-.07s.33-.1.45-.16c.14-.06.27-.13.4-.2.12-.07.22-.13.27-.16h.04l-.3.85c-.25.11-.5.2-.78.28-.27.08-.53.12-.8.12v-.02Z"/>
      <path class="st4" d="M56.61,28.64c-.08.05-.19.11-.33.19-.14.08-.28.15-.41.21-.15.06-.31.12-.47.16-.18.04-.37.07-.58.07-.36,0-.62-.11-.81-.33s-.25-.49-.2-.84c.06-.37.19-.68.39-.93.2-.26.45-.46.79-.62.33-.16.7-.27,1.14-.35.43-.07.92-.12,1.47-.13.03-.08.05-.15.07-.2.02-.06.04-.12.05-.18.02-.13,0-.24-.02-.33-.04-.08-.1-.15-.19-.2-.09-.05-.19-.08-.31-.1-.12-.02-.26-.03-.41-.03-.23,0-.49.04-.79.12-.31.08-.55.15-.74.23h-.04l.27-.78c.16-.04.39-.09.69-.14s.58-.08.85-.08c.55,0,.95.09,1.2.27s.34.46.28.86c0,.08-.03.16-.06.24-.03.09-.05.17-.08.24l-1.2,3.14h-.74l.19-.49h0ZM57.37,26.68c-.42.02-.78.05-1.11.1-.33.05-.6.12-.82.21-.23.09-.42.22-.55.38-.14.16-.23.36-.26.58-.03.2,0,.36.12.45.11.11.31.16.58.16.24,0,.49-.06.76-.17s.52-.25.77-.41c0,0,.5-1.3.5-1.3Z"/>
      <path class="st4" d="M63.87,25.32h-.04c-.1-.03-.2-.05-.29-.06s-.2-.02-.33-.02c-.25,0-.5.06-.77.18s-.52.26-.77.42l-1.25,3.29h-.75l1.75-4.64h.75l-.26.68c.4-.26.72-.43.98-.53.26-.1.5-.15.73-.15.13,0,.23,0,.28,0,.06,0,.14.02.25.04l-.3.77h0Z"/>
    </g>
    <g>
      <path class="st4" d="M106.77,15.26h3.53c.79,0,1.26-.47,1.37-1.17l.08-.48c.13-.81-.41-1.35-1.3-1.35h-.96l.42-2.43h1.47c1.92,0,3.03,1.25,2.63,3.58l-.21,1.19c-.39,2.1-1.69,3.19-3.96,3.19h-3.16l.09-2.51h0Z"/>
      <path class="st4" d="M116.52,6.94l2.25-.28-1.91,11.1h-2.2s1.86-10.82,1.86-10.82Z"/>
      <path class="st4" d="M123.81,15.41l-.38,2.18c-.02.09-.09.17-.17.17-.59,0-1.07-.22-1.36-.61l-.04.26c-.45,2.63-1.94,3.62-4.63,3.62l.18-1.93c1.15,0,2.06-.48,2.28-1.8l1.18-6.97,2.25-.29-.7,4.09c0,.71.53,1.11,1.27,1.11.09,0,.13.06.12.15v.02Z"/>
      <path class="st4" d="M129.26,15.41l-.38,2.18c-.02.09-.09.17-.17.17-.75,0-1.48-.42-2.02-1.14-.78.76-1.96,1.14-3.44,1.14-.09,0-.13-.08-.11-.17l.41-2.18c.02-.09.08-.15.17-.15,1.1,0,1.77-.45,1.96-1.55l.3-1.83,2.25-.28-.51,2.96-.03.2c.42.32.92.48,1.47.48.09,0,.13.06.12.15h-.02ZM126.1,10.82l-1.2-1.58,1.72-1.56.91,1.17,1.3-1.17,1.2,1.56-1.71,1.58-.93-1.19-1.3,1.19h0Z"/>
      <path class="st4" d="M142.25,10.06l-.77,4.52c-.36,2.07-1.56,3.19-3.51,3.19-.79,0-1.5-.28-2.19-.85-.64.53-1.47.85-2.42.85-.7,0-1.34-.29-1.94-.9-.66.57-1.56.9-2.7.9-.09,0-.13-.08-.11-.17l.38-2.18c.02-.09.08-.15.17-.15.79,0,1.26-.47,1.43-1.55l.3-1.83,2.26-.28-.51,2.96c-.03.15-.07.31-.11.45.33.15.65.23,1.02.23.8,0,1.27-.47,1.45-1.55l.3-1.83,2.25-.28-.51,2.96c-.03.17-.07.34-.12.5.34.12.66.18,1.06.18.76,0,1.27-.53,1.43-1.55l.58-3.37,2.25-.28h0Z"/>
      <path class="st4" d="M150.07,15.41l-.38,2.18c-.02.09-.09.17-.17.17h-.69c-.6,2.37-3.06,3.27-6.34,3.27l.11-1.93c2.36,0,3.59-.37,4.01-1.33h-1.19c-2.01,0-3.08-1.5-2.7-3.79.39-2.25,2.19-3.92,4.14-3.92s3.05,1.44,2.65,3.8l-.24,1.4h.68c.09,0,.13.06.12.15h0ZM146.03,15.39c.33,0,.68-.03,1.06-.06l.23-1.3c.17-.99-.26-1.57-1.02-1.57-.7,0-1.42.56-1.57,1.44-.17,1.01.43,1.49,1.31,1.49h0Z"/>
      <path class="st4" d="M153.17,10.34l2.25-.29-.77,4.52c-.36,2.1-1.66,3.19-3.93,3.19h-1.19c-.09,0-.13-.08-.11-.17l.41-2.18c.02-.09.08-.15.17-.15h1.19c.79,0,1.26-.47,1.43-1.55l.56-3.36h0ZM153.31,9.18l-1.22-1.56,1.72-1.56.92,1.17,1.3-1.17,1.22,1.56-1.72,1.56-.91-1.17-1.3,1.17h0Z"/>
      <path class="st4" d="M163.08,13.86l-.61,3.58c-.45,2.63-2.97,3.61-6.42,3.61l.11-1.93c2.6,0,3.83-.45,4.11-1.66-.47.2-.93.32-1.35.32-1.94,0-3.01-1.49-2.63-3.79.39-2.25,2.19-3.92,4.14-3.92s3.05,1.44,2.65,3.8h0ZM159.52,15.39c.34,0,.73-.06,1.14-.15l.21-1.22c.17-.99-.26-1.57-1.02-1.57-.7,0-1.42.56-1.57,1.44-.17,1.01.38,1.5,1.25,1.49Z"/>
      <path class="st4" d="M165.71,8.8l2.25-.28-1.59,9.24h-2.2l1.54-8.97h0ZM169.05,6.53l-.47,1.27h-3.36l.22-1.27h.59c-.06-.23-.08-.47-.03-.74.14-.79.83-1.38,1.63-1.38.46,0,.94.15,1.22.31l-.2,1.16c-.35-.15-.64-.23-.86-.23-.31,0-.56.17-.61.42-.03.18,0,.34.08.47h1.8Z"/>
    </g>
    <g>
      <path class="st4" d="M120.67,29.47c-1.51,0-2.58-.59-2.34-2.03.08-.47.24-.94.54-1.4l.2.1c-.16.34-.26.62-.3.88-.19,1.18.82,1.66,2.18,1.66.64,0,1.27-.1,1.91-.25.26-.06.51-.13.76-.24.05-.02.06-.05.07-.06.04-.28-.13-.84-.32-1.43.17-.25.35-.47.51-.65h.03c.18.47.36,1.2.26,1.77-.07.43-.25.7-.44.97-.52.31-1.98.69-3.06.69h0ZM121.08,25.59c-.19-.23-.36-.42-.54-.6.18-.21.36-.41.52-.55.2.19.35.38.52.62-.19.24-.33.39-.5.53ZM122.14,25.51c-.19-.23-.36-.42-.54-.6.18-.21.36-.41.52-.55.2.19.35.38.52.62-.19.23-.33.39-.5.53Z"/>
      <path class="st4" d="M124.7,29.33c.11-.37.19-.78.25-1.17l.09-.57c.17-1.07.32-2.61.39-3.62.19-.21.43-.45.63-.61l.05.02c-.09,1.27-.3,2.74-.52,4.09-.06.36-.13.7-.19.96-.07.32-.26.56-.63.94,0,0-.06-.04-.06-.04Z"/>
      <path class="st4" d="M127.73,26.24l.26.78c.1.29.18.6.1,1.11l-.1.64c-.08.51-.43,1.07-.95,1.61-.4.38-.71.53-.99.53-.41,0-.84-.16-1.32-.44l.09-.2c.16.06.35.11.59.11.77,0,1.67-.71,2.16-1.57.06-.1.09-.19.1-.26.02-.1,0-.21-.03-.31-.12-.46-.27-.89-.44-1.27.17-.25.33-.48.5-.72h.03Z"/>
      <path class="st4" d="M130.02,29.23h-.06c-.43,0-.69-.09-.88-.33-.28-.36-.22-.77-.08-1.63.18-1.11.31-2.26.42-3.49.22-.22.42-.41.6-.54l.03.02c-.12,1.27-.37,2.78-.59,4.21l-.05.33c-.06.38.11.54.31.62.13.05.27.06.34.06h.08l-.12.74h0Z"/>
      <path class="st4" d="M130.26,28.49c.42,0,.89-.18,1.02-.51l.26-.62.42-.29.03.04c-.13.3-.21.54-.23.67-.03.21,0,.38.1.48.15.15.35.23.64.23h.1l-.12.74h-.13c-.53,0-.91-.16-1.03-.59h-.02c-.25.39-.71.59-1.18.59h-.1c-.3,0-.35-.24-.32-.39.02-.14.15-.36.43-.36h.12,0ZM130.39,31.55c-.19-.23-.36-.42-.54-.6.18-.21.36-.41.52-.55.2.19.35.38.52.62-.19.23-.33.39-.5.53ZM131.45,31.47c-.19-.23-.36-.42-.54-.6.18-.21.36-.41.52-.55.2.19.35.38.52.62-.19.24-.33.39-.5.53Z"/>
      <path class="st4" d="M138.07,29.23h-.14c-.67,0-.95-.22-1.04-.54h-.03c-.37.39-.7.54-1.02.54-.24,0-.49-.08-.51-.48h-.02c-.29.29-.61.48-1.02.48-.3,0-.46-.15-.44-.49h-.02c-.4.42-.87.49-1.25.49h-.09c-.3,0-.35-.24-.32-.39.02-.14.15-.36.43-.36h.19c.49,0,.9-.15,1.24-.54l.35-.45.44-.16.02.03c-.27.39-.46.65-.48.83-.03.18.08.29.25.29.16,0,.35-.06.5-.18.15-.11.33-.31.43-.51l.19-.35.44-.21.02.02c-.24.44-.33.65-.37.87-.03.16.04.34.25.34.18,0,.31-.07.4-.13.18-.12.3-.31.41-.55.04-.09.09-.21.18-.45l.46-.3.02.02c-.11.26-.23.58-.27.79-.07.45.28.62.79.62h.12l-.12.74v.03Z"/>
      <path class="st4" d="M138.31,28.49c.18,0,.38-.02.63-.16.21-.12.35-.33.39-.62.14-.93.25-1.95.33-3.01.02-.27.03-.51.06-.72.02-.13.1-.26.23-.39.09-.1.22-.21.36-.32l.03.03c-.07.38.02.83.23,1.33-.12.1-.25.2-.4.3-.09.67-.15,1.37-.26,2.02-.1.62-.24,1.11-.45,1.46-.16.3-.34.54-.6.67-.23.12-.49.18-.71.18h-.08c-.3,0-.35-.24-.32-.39.02-.14.15-.36.43-.36h.12l.02-.03Z"/>
      <path class="st4" d="M140.47,29.33c.11-.37.19-.78.25-1.17l.09-.57c.17-1.07.32-2.61.39-3.62.19-.21.43-.45.63-.61l.05.02c-.09,1.27-.3,2.74-.52,4.09-.06.36-.13.7-.19.96-.07.32-.26.56-.63.94,0,0-.06-.04-.06-.04Z"/>
      <path class="st4" d="M148.03,26.45v.91c0,.44.08.84.3,1.01.13.08.27.13.42.13h.07l-.12.74h-.1c-.65,0-.87-.32-.94-1.26l-.04-.59h-.03c-.22.36-.55.64-.91.62.02.3,0,.54-.05.8,0,.07-.02.14-.06.3-.03.12-.17.44-.43.78-.45.57-.93.88-1.22.88-.47,0-.87-.18-1.34-.45l.11-.19c.13.07.31.15.48.15.56,0,1.12-.29,1.63-.82.3-.32.53-.6.57-.82-.07-.37-.29-.67-.52-.99l.3-.74h.05c.12.14.24.28.34.37.11.09.26.13.43.13.13,0,.28-.06.42-.16.2-.14.36-.47.58-.78h.06,0ZM146.53,31.72c-.19-.23-.36-.42-.54-.6.18-.21.36-.41.52-.55.2.19.35.38.52.62-.19.23-.33.39-.5.53ZM147.6,31.65c-.19-.23-.36-.42-.54-.6.18-.21.36-.41.52-.55.2.19.35.38.52.62-.19.24-.33.39-.5.53Z"/>
      <path class="st4" d="M149.16,28.49c.88,0,1.84-.33,3.08-1.05v-.02c-.58-.25-1.14-.41-1.64-.41-.31,0-.55.11-.74.29l.02.29-.25.52h-.05l-.15-.77c.15-.64.7-1.05,1.35-1.05.37,0,.92.14,1.71.5.25.11.56.18.9.19h.46l-.39.61c-.45,0-.78.09-.98.22l-1.01.63c-.81.5-1.63.78-2.48.78h-.29c-.3,0-.35-.24-.32-.39.02-.14.15-.36.43-.36h.34-.02ZM150.56,30.1c.2.18.38.39.55.62-.16.21-.34.41-.54.57-.18-.22-.36-.41-.54-.6.18-.21.37-.42.53-.59h0Z"/>
      <path class="st4" d="M155.5,29.23h-.06c-.43,0-.69-.09-.88-.33-.28-.36-.22-.77-.08-1.63.18-1.11.31-2.26.42-3.49.22-.22.42-.41.6-.54l.03.02c-.12,1.27-.37,2.78-.59,4.21l-.05.33c-.06.38.11.54.31.62.13.05.27.06.34.06h.08l-.12.74h0ZM156.28,22.46c-.09.15-.18.28-.28.4-.56.09-1.06.25-1.48.43v-.02l.16-.25c.06-.06.19-.16.28-.19v-.02c-.24-.08-.39-.26-.34-.5.03-.16.16-.36.34-.51.21-.19.49-.33.71-.33s.33.14.3.29-.13.27-.24.38h0c-.04-.13-.08-.21-.14-.23-.04,0-.1-.02-.17-.02-.19,0-.4.12-.42.21-.05.28.4.38.72.38.19,0,.38,0,.56-.02v.02h0Z"/>
      <path class="st4" d="M155.74,28.49c.42,0,.89-.18,1.02-.51l.26-.62.42-.29.03.04c-.13.3-.21.54-.23.67-.03.21,0,.38.1.48.15.15.35.23.64.23h.1l-.12.74h-.13c-.53,0-.91-.16-1.03-.59h-.02c-.25.39-.71.59-1.18.59h-.1c-.3,0-.35-.24-.32-.39.02-.14.15-.36.43-.36h.12,0ZM156.7,26.28c-.19-.23-.36-.42-.54-.6.18-.21.36-.41.52-.55.2.19.35.38.52.62-.19.24-.33.39-.5.53ZM157.77,26.22c-.19-.23-.36-.42-.54-.6.18-.21.36-.41.52-.55.2.19.35.38.52.62-.19.24-.33.39-.5.53Z"/>
      <path class="st4" d="M158.2,28.49c.18,0,.38-.02.63-.16.21-.12.35-.33.39-.62.14-.93.25-1.95.33-3.01.02-.27.03-.51.06-.72.02-.13.1-.26.23-.39.09-.1.22-.21.36-.32l.03.03c-.07.38.02.83.23,1.33-.12.1-.25.2-.4.3-.09.67-.15,1.37-.26,2.02-.1.62-.24,1.11-.45,1.46-.16.3-.34.54-.6.67-.23.12-.49.18-.71.18h-.08c-.3,0-.35-.24-.32-.39.02-.14.15-.36.43-.36h.12l.02-.03Z"/>
    </g>
  </g>
  <ellipse class="st5" cx="92.2" cy="12.27" rx=".92" ry=".94"/>
  <g>
    <path class="st4" d="M95.68,4.35c-1.02-.46-2.14-.73-3.33-.75-.03,0-.06.03-.06.06v1.47s.03.06.06.06c.94.02,1.83.23,2.65.59.08.03.16,0,.2-.07l.56-1.14c.04-.08,0-.18-.08-.22h0Z"/>
    <path class="st4" d="M92.06,3.59c-1.19.02-2.31.29-3.33.75-.08.04-.12.14-.08.22l.56,1.14c.04.07.13.11.2.07.81-.37,1.71-.57,2.65-.59.03,0,.06-.03.06-.06v-1.47s-.03-.06-.06-.06h0Z"/>
  </g>
  <g>
    <path class="st4" d="M95.6,6.08c1.23.7,2.22,1.77,2.85,3.06.26.54,0,1.2-.58,1.37l-.16.05s-.07.02-.1.03c-.11.03-.18.13-.18.25v1.26c0,.11.08.21.18.25h0l1.04.31c.3.09.47.39.43.69-.33,2.17-1.62,4.03-3.42,5.08,1.42,0,2.55-.44,3.29-.87,1.11-1.46,1.76-3.3,1.76-5.29,0-3.27-1.77-6.12-4.39-7.59-.07-.04-.15,0-.19.06l-.58,1.17c-.03.07,0,.15.05.18Z"/>
    <path class="st4" d="M88.76,18.42c-1.8-1.06-3.09-2.91-3.42-5.08-.05-.31.14-.6.43-.69l1.04-.31h0c.11-.03.18-.13.18-.25v-1.26c0-.11-.07-.21-.18-.25-.03,0-.07-.02-.1-.03l-.16-.05c-.56-.18-.84-.83-.58-1.37.62-1.29,1.62-2.36,2.85-3.06.06-.04.09-.12.05-.18l-.58-1.17c-.03-.07-.12-.1-.19-.06-2.62,1.48-4.39,4.33-4.39,7.59,0,2,.67,3.83,1.79,5.31.75.42,1.86.86,3.26.85Z"/>
    <path class="st4" d="M94.52,18.96h0c-.4.14-.84-.05-1.01-.44-.04-.08-.11-.13-.2-.13-.07,0-.14-.03-.18-.09-.05-.07-.14-.11-.22-.11h-1.39c-.09,0-.17.04-.22.11-.04.05-.11.09-.18.09-.09,0-.17.05-.2.13-.17.4-.61.58-1.01.44h0s-2.27,0-4.03-.94c1.57,1.81,3.86,2.95,6.4,2.93,2.52-.02,4.78-1.16,6.33-2.95-1.77.96-4.07.96-4.07.96h-.02Z"/>
  </g>
  <path class="st0" d="M84.57,9.57c-.27.83-.42,1.72-.42,2.64,0,1.94.64,3.73,1.72,5.15,1.5,1.99,3.84,3.27,6.49,3.29V3.77h-.08c-3.61.06-6.64,2.47-7.72,5.8Z"/>
  <path class="st2" d="M85.9,17.37c-1.08-1.42-1.72-3.21-1.72-5.15,0-.92.15-1.81.42-2.64,1.08-3.32,4.11-5.73,7.72-5.8h.08V.3c-1.04,0-2.05.14-3.01.39-1.45.39-2.8,1.04-3.97,1.9-1.52,1.11-2.79,2.57-3.67,4.27-.68,1.31-1.14,2.78-1.3,4.32-.05.46-.08.94-.08,1.41h0c0,.15.12,2.96,3.02,8.01.07.13.15.25.22.39.31.51.64,1.06,1.01,1.62.65,1,1.4,2.06,2.26,3.18.53.7,1.12,1.42,1.74,2.18.87,1.04,1.83,2.12,2.89,3.25.21.22.41.43.61.65.09.1.18.19.27.28v-11.49c-2.64-.02-4.99-1.3-6.49-3.29h.02Z"/>
  <path class="st1" d="M98.13,25.45c.15-.2.29-.39.42-.57.23-.31.44-.61.66-.92.14-.2.27-.39.4-.57.42-.63.82-1.24,1.18-1.81.13-.21.25-.41.37-.61,1.02-1.72,1.71-3.18,2.19-4.39.16-.41.3-.78.42-1.13.6-1.8.64-2.78.64-2.87h0c0-.42-.03-.83-.07-1.24-.06-.57-.15-1.15-.28-1.69-.07-.3-.16-.59-.25-.88-.06-.18-.12-.35-.18-.51-.42-1.15-1.01-2.2-1.73-3.16-.73-.97-1.6-1.83-2.59-2.54-.17-.12-.34-.24-.51-.36-.88-.57-1.84-1.02-2.86-1.34-.52-.17-1.07-.3-1.62-.4-.64-.11-1.29-.17-1.96-.17v3.47h.07c1.31,0,2.55.32,3.66.87,1.81.91,3.24,2.47,4.01,4.39.35.86.55,1.78.6,2.75,0,.15,0,.29,0,.43,0,2.91-1.44,5.48-3.63,6.99-.65.45-1.38.82-2.15,1.07-.78.26-1.62.39-2.49.39h-.07v11.49c.11-.11.21-.22.32-.33,2.2-2.31,4-4.44,5.46-6.37h-.02Z"/>
  <g>
    <path class="st4" d="M34.28,39.78c.07-.1.16-.23.3-.37-.36,0-.91-.05-1.64-.1-.9-.07-1.52-.12-1.85-.12s-.79.02-1.38.08c-.79.1-1.46.32-2.02.65-.57.32-.9.74-1.01,1.24-.01.05-.02.1-.02.19s.02.15.07.25.1.17.16.23c.07.06.16.13.3.21s.23.14.28.19c.05.03.06.07.02.09s-.06.03-.08.03-.06,0-.09-.01c-.28-.08-.52-.24-.72-.46s-.29-.42-.29-.57.02-.29.06-.39c0-.09,0-.16.01-.2.13-.59.5-1.04,1.13-1.36.75-.39,1.68-.58,2.78-.58.67,0,1.55.07,2.64.22,1.09.15,1.69.22,1.82.22.22-.24.39-.38.51-.38.05,0,.1-.01.17-.01s.14.02.2.08.09.1.09.16-.02.12-.07.17c-.05.06-.15.14-.3.25-.15.12-.28.21-.37.3-.43.43-.65.81-.65,1.13,0,.14.02.25.08.34.06.09.06.15-.01.19s-.14,0-.21-.08c-.08-.07-.13-.28-.13-.64s.07-.68.22-.97v.02ZM29.56,45.14s.03.02.03.07-.06.13-.17.24l-.13.19c-.22.34-.38.54-.49.6-.1.06-.19.08-.24.08s-.16-.01-.29-.05c-.13-.03-.2-.06-.2-.09v-.21c0-.1.08-.37.23-.77s.34-.81.54-1.21c.38-.74.76-1.47,1.15-2.16.07-.14.12-.25.12-.32s-.01-.14-.03-.19c.05-.24.25-.54.61-.91.36-.37.69-.56.98-.56.13,0,.29.05.49.15.19.1.28.24.24.4-.06-.05-.12-.06-.16-.06-.35,0-.79.34-1.31,1.02-.87,1.12-1.61,2.42-2.21,3.87-.07.17-.1.29-.1.36v.12c.03.08.1.1.21.07s.2-.1.29-.22c.22-.28.36-.42.44-.42Z"/>
    <path class="st4" d="M35.11,38.59c.15-.06.28-.08.38-.08.36,0,.6.1.72.3.07.1.1.19.1.27,0,.57-.47,1.27-1.41,2.12-.83.74-1.61,1.36-2.3,1.9-.23.52-.47,1.16-.72,1.92.3-.36.67-.79,1.13-1.26.91-.95,1.56-1.42,1.92-1.42.19,0,.28.09.29.28s-.02.37-.12.54c-.09.17-.19.34-.27.49-.39.65-.58,1.21-.58,1.72,0,.16.03.29.1.36.12.13.28.14.5.02s.52-.35.9-.69c.38-.35.69-.68.94-1.02.05-.05.08-.05.12-.03s.06.05.06.06,0,.05-.02.07c-.13.22-.35.51-.67.84-.32.35-.58.59-.79.74-.38.29-.74.44-1.09.44-.31,0-.52-.16-.64-.47-.02-.07-.03-.16-.03-.27s0-.21.02-.32c.05-.35.27-.89.66-1.62.08-.15.13-.25.13-.31s-.03-.09-.1-.09c-.13,0-.39.16-.76.5-.25.24-.64.69-1.13,1.35-.5.67-.79,1.02-.84,1.06-.3.15-.49.22-.56.22s-.12,0-.12-.03c0-.02,0-.05.01-.08s.08-.22.2-.54c.39-1.1.65-1.83.8-2.19-.28.35-.61.74-1.02,1.18-.07.07-.1.06-.1-.05s.03-.2.12-.29c.07-.1.23-.29.46-.58s.4-.5.5-.64c-.07-.05-.12-.1-.12-.17s.02-.13.07-.15c.06-.02.14-.02.27.03.08-.12.16-.24.22-.38.98-2.12,1.92-3.34,2.8-3.68l-.02-.03ZM35.8,39.53c.1-.2.16-.37.16-.5s-.06-.21-.19-.21-.28.07-.47.22c-.91.69-1.73,1.85-2.46,3.48.53-.35,1.1-.81,1.69-1.39s1.02-1.12,1.27-1.61Z"/>
    <path class="st4" d="M39.38,42.25c.45,0,.67.22.67.65,0,.22-.06.4-.19.54-.21.3-.54.58-1.01.8-.46.23-.86.36-1.18.38-.12,0-.17-.02-.19-.1,0-.03,0-.06.03-.06.02,0,.05-.01.07-.01.19-.01.44-.1.73-.28.56-.3.96-.6,1.21-.91.1-.15.16-.29.16-.43s-.07-.21-.2-.21c-.1,0-.25.05-.44.14-.39.19-.8.5-1.23.95-.43.45-.72.89-.84,1.32-.05.13-.06.27-.06.39s.06.25.16.37.28.17.5.17c.24,0,.53-.07.86-.2.94-.38,1.65-.96,2.16-1.72.05-.07.09-.08.14-.03.03.01.05.03.05.06s-.01.06-.03.09c-.24.42-.57.79-.95,1.1-.74.62-1.45.94-2.14.94-.59,0-1.02-.17-1.25-.53-.09-.14-.14-.31-.14-.51s.06-.44.16-.71c.21-.47.65-.96,1.33-1.45.68-.5,1.21-.74,1.61-.74h-.01Z"/>
    <path class="st4" d="M50.16,38.59c.15-.06.28-.08.38-.08.36,0,.6.1.72.3.07.1.1.19.1.27,0,.57-.47,1.27-1.41,2.12-.83.74-1.61,1.36-2.3,1.9-.23.52-.47,1.16-.72,1.92.3-.36.67-.79,1.13-1.26.91-.95,1.56-1.42,1.92-1.42.19,0,.28.09.29.28s-.02.37-.12.54c-.09.17-.19.34-.27.49-.39.65-.58,1.21-.58,1.72,0,.16.03.29.1.36.12.13.28.14.5.02s.52-.35.9-.69c.38-.35.69-.68.94-1.02.05-.05.08-.05.12-.03s.06.05.06.06,0,.05-.02.07c-.13.22-.35.51-.67.84-.32.35-.58.59-.79.74-.38.29-.74.44-1.09.44-.31,0-.52-.16-.64-.47-.02-.07-.03-.16-.03-.27s0-.21.02-.32c.05-.35.27-.89.66-1.62.08-.15.13-.25.13-.31s-.03-.09-.1-.09c-.13,0-.39.16-.76.5-.25.24-.64.69-1.13,1.35-.5.67-.79,1.02-.84,1.06-.3.15-.49.22-.56.22s-.12,0-.12-.03c0-.02,0-.05.01-.08s.08-.22.2-.54c.39-1.1.65-1.83.8-2.19-.28.35-.61.74-1.02,1.18-.07.07-.1.06-.1-.05s.03-.2.12-.29c.07-.1.23-.29.46-.58s.4-.5.5-.64c-.07-.05-.12-.1-.12-.17s.02-.13.07-.15c.06-.02.14-.02.27.03.08-.12.16-.24.22-.38.98-2.12,1.92-3.34,2.8-3.68l-.02-.03ZM50.85,39.53c.1-.2.16-.37.16-.5s-.06-.21-.19-.21-.28.07-.47.22c-.91.69-1.73,1.85-2.46,3.48.53-.35,1.1-.81,1.69-1.39s1.02-1.12,1.27-1.61Z"/>
    <path class="st4" d="M54.41,42.25c.45,0,.67.22.67.65,0,.22-.06.4-.19.54-.21.3-.54.58-1.01.8-.46.23-.86.36-1.18.38-.12,0-.17-.02-.19-.1,0-.03,0-.06.03-.06.02,0,.05-.01.07-.01.19-.01.44-.1.73-.28.56-.3.96-.6,1.21-.91.1-.15.16-.29.16-.43s-.07-.21-.2-.21c-.1,0-.25.05-.44.14-.39.19-.8.5-1.23.95-.43.45-.72.89-.84,1.32-.05.13-.06.27-.06.39s.06.25.16.37.28.17.5.17c.24,0,.53-.07.86-.2.94-.38,1.65-.96,2.16-1.72.05-.07.09-.08.14-.03.03.01.05.03.05.06s-.01.06-.03.09c-.24.42-.57.79-.95,1.1-.74.62-1.45.94-2.14.94-.59,0-1.02-.17-1.25-.53-.09-.14-.14-.31-.14-.51s.06-.44.16-.71c.21-.47.65-.96,1.33-1.45.68-.5,1.21-.74,1.61-.74h-.01Z"/>
    <path class="st4" d="M56.12,45.99c-.13,0-.28-.03-.43-.12-.15-.08-.29-.19-.39-.34s-.16-.3-.16-.46.03-.32.12-.47c.16-.35.43-.68.8-1.01s.75-.6,1.15-.83.71-.38.94-.44.46-.09.67-.09.4.06.57.16c.16.12.23.23.23.36,0,.05,0,.07-.01.07,0,0-.03,0-.06-.01-.1-.16-.3-.23-.61-.23s-.66.1-1.05.3c-.39.21-.76.46-1.11.76-.29.28-.54.58-.76.93s-.32.59-.32.75c0,.3.08.46.27.46s.44-.14.8-.42c.59-.5.98-.86,1.2-1.09.76-.82,1.17-1.23,1.23-1.23.1,0,.22.03.36.09s.19.13.14.21c-.42.59-.67,1.19-.74,1.79,0,.07-.01.17-.01.29s.03.21.1.29c.13.13.29.14.51.02s.52-.35.9-.69.69-.68.93-1.02c.03-.05.07-.05.12-.03.05.02.06.03.06.06,0,.13-.2.39-.59.81s-.69.71-.9.84c-.39.29-.75.44-1.08.44s-.52-.16-.64-.47c-.02-.1-.03-.21-.03-.34,0-.37.08-.76.23-1.18-.03.01-.19.19-.46.5s-.59.61-.95.9-.68.44-.97.44h-.01Z"/>
    <path class="st4" d="M62.81,46.17c-.42,0-.64-.25-.64-.76s.36-1.13,1.09-1.87c.06-.06.1-.1.13-.14l.09-.13c.12-.16.17-.25.16-.3l-.03-.12c-.03-.1-.17-.17-.4-.22s-.44-.07-.58-.07c-.74,1.05-1.18,1.65-1.3,1.79-.12.15-.2.21-.23.19-.05-.02-.06-.06-.06-.09s.02-.08.07-.15c.45-.54.83-1.13,1.16-1.75-.1-.01-.17-.05-.22-.1s-.06-.15-.01-.28.16-.3.38-.52c.21-.22.39-.36.56-.44.16-.07.25-.12.3-.14.05-.01.09-.02.14-.02.1,0,.07.15-.1.45l-.49.77c.37.02.69.03.96.03h.44c.14-.01.24,0,.31.05s.08.1.05.2c-.06.16-.21.37-.44.64-.5.58-.87,1.19-1.11,1.85-.06.16-.09.29-.09.4,0,.24.09.36.27.36.06,0,.16-.05.32-.14s.43-.31.81-.65c.38-.35.68-.68.91-1.01.03-.05.07-.05.12-.03s.07.05.07.06,0,.05-.02.07c-.13.22-.35.51-.67.86-.32.35-.64.62-.95.84-.3.23-.62.35-.97.35v.02Z"/>
    <path class="st4" d="M67.07,42.37c.64-.06,1.02-.08,1.16-.08s.21.02.21.06c0,.05-.09.1-.29.15-.2.06-.67.13-1.42.21-.05.07-.09.16-.15.27-.13.2-.19.32-.2.36-.47.95-.72,1.54-.74,1.79,0,.07-.01.17-.01.29s.03.21.1.29c.12.13.28.14.5.02s.51-.35.9-.69c.38-.35.69-.68.94-1.02.03-.05.07-.05.13-.02.13.06-.09.38-.65.98-.53.57-.97.93-1.33,1.05-.21.07-.38.12-.52.12-.34,0-.56-.16-.66-.47-.01-.06-.02-.13-.02-.21,0-.29.13-.73.39-1.32-.05.09-.21.3-.49.62-.07.08-.13.08-.17,0,0-.01-.01-.03-.01-.07s.01-.07.05-.1c.4-.51.73-.93.96-1.27,0,0,.09-.19.28-.52-.08.01-.16.02-.25.02s-.15-.02-.2-.08-.05-.12-.01-.2c.06-.13.28-.21.66-.22,0-.01.02-.02.05-.02l.62-1.16c.03-.07.07-.14.12-.21s.07-.13.09-.16c.02-.03.05-.08.07-.12.02-.05.05-.07.06-.09l.05-.05s.13-.07.29-.07.27.05.32.14c.02.03.03.09.03.17s-.03.16-.09.25-.12.16-.19.21c-.07.05-.12.09-.14.14l-.59,1.04h.16v-.03Z"/>
    <path class="st4" d="M75.89,44.49c.15-.3.22-.54.22-.71s-.02-.3-.06-.39c-.03-.09-.02-.17.05-.24s.16-.09.27-.07c.16.05.24.23.24.56s-.2.76-.58,1.31c0,.22.13.34.35.34s.57-.24,1.02-.72c.22-.24.35-.4.4-.49.06-.07.1-.1.14-.08.05.02.06.03.06.06,0,.08-.15.3-.45.65-.47.58-.89.87-1.25.87-.24,0-.4-.1-.51-.31-.16.17-.32.34-.49.49-.32.28-.68.4-1.08.4-.22,0-.4-.06-.56-.16-.29-.17-.44-.49-.44-.93,0-.49.16-.98.5-1.49.19-.3.42-.56.67-.79.4-.36.79-.53,1.16-.53.09,0,.17.01.25.03.24.08.37.24.37.47,0,.19-.05.29-.15.29-.05-.01-.06-.08-.06-.19,0-.15-.08-.22-.24-.22-.29,0-.66.27-1.12.8-.45.53-.73,1.06-.82,1.6-.01.09-.02.2-.02.3s.03.24.12.38c.07.14.21.22.42.22s.43-.09.66-.28.45-.42.65-.69l-.03-.07c-.03-.13-.01-.24.05-.32s.15-.1.27-.07h.01Z"/>
    <path class="st4" d="M77.09,49.88s-.05.07-.06.08c-.02.01-.1.07-.25.15s-.28.13-.4.13-.19-.03-.19-.08c0-.02,0-.06.02-.1.15-.28.91-2.19,2.29-5.71-.25.03-.45.05-.57.05s-.22-.02-.29-.08-.1-.13-.1-.21.09-.16.28-.23c.19-.07.32-.1.43-.1s.19.03.24.1.12.1.14.1h.03l.36-.91c.15-.42.38-.95.68-1.62.3-.67.58-1.19.83-1.6.56-.83,1.11-1.25,1.67-1.25l.3.03.24.09c.24.14.36.34.36.58s-.07.51-.2.79c-.22.47-.68,1.1-1.36,1.87s-1.35,1.41-1.99,1.92c.68-.06,1.11-.09,1.31-.09s.3.02.3.07c0,.03-.08.07-.23.12-.16.05-.8.15-1.91.31-.98,2.5-1.48,3.93-1.5,4.29,0,.19-.02.31-.06.39s-.07.17-.1.28c-.05.1-.07.19-.09.23-.02.06-.05.12-.07.19s-.05.12-.06.14-.03.06-.06.1v-.02ZM82.57,39.88c.14-.24.21-.46.21-.68s-.08-.32-.23-.32c-.31,0-.76.4-1.34,1.21-.34.47-.64.96-.9,1.42-.53.99-.87,1.71-1.02,2.17l-.1.2c.58-.43,1.19-1.04,1.85-1.84s1.17-1.52,1.54-2.17h0Z"/>
    <path class="st4" d="M89.52,42.25c.45,0,.67.22.67.65,0,.22-.06.4-.19.54-.21.3-.54.58-1.01.8-.46.23-.86.36-1.18.38-.12,0-.17-.02-.19-.1,0-.03,0-.06.03-.06.02,0,.05-.01.07-.01.19-.01.44-.1.73-.28.56-.3.96-.6,1.21-.91.1-.15.16-.29.16-.43s-.07-.21-.2-.21c-.1,0-.25.05-.44.14-.39.19-.8.5-1.23.95-.43.45-.72.89-.84,1.32-.05.13-.06.27-.06.39s.06.25.16.37.28.17.5.17c.24,0,.53-.07.86-.2.94-.38,1.65-.96,2.16-1.72.05-.07.09-.08.14-.03.03.01.05.03.05.06s-.01.06-.03.09c-.24.42-.57.79-.95,1.1-.74.62-1.45.94-2.14.94-.59,0-1.02-.17-1.25-.53-.09-.14-.14-.31-.14-.51s.06-.44.16-.71c.21-.47.65-.96,1.33-1.45.68-.5,1.21-.74,1.61-.74h-.01Z"/>
    <path class="st4" d="M91.25,43.09c0-.39-.12-.59-.35-.59-.05,0-.1,0-.15.02-.06.01-.08,0-.08-.03s.02-.07.07-.13c.05-.05.22-.07.51-.1.35,0,.57.05.65.15s.13.2.13.3-.08.35-.23.74-.23.6-.24.61c-.24.74-.36,1.21-.34,1.4.74-.99,1.24-1.62,1.47-1.87.49-.53.83-.9,1.04-1.1.47-.45.9-.75,1.26-.9.1-.05.2-.06.29-.06.28,0,.46.08.56.24.03.05.05.08.05.12s-.01.08-.03.13-.07.05-.14,0-.22-.08-.45-.08c-.38,0-1.02.45-1.91,1.34-.53.56-1.03,1.13-1.48,1.73s-.69,1.03-.73,1.3c0,.07-.06.1-.19.1s-.22-.05-.28-.15c-.06-.1-.09-.19-.09-.27s0-.13.01-.19c0-.06.09-.36.24-.91.16-.56.25-.93.3-1.1-.1.16-.23.37-.4.61-.06.07-.1.08-.14.06-.03-.03-.06-.06-.06-.08s0-.06.02-.08c.35-.47.58-.87.68-1.18v-.03Z"/>
    <path class="st4" d="M97.38,42.25c.45,0,.67.22.67.65,0,.22-.06.4-.19.54-.21.3-.54.58-1.01.8-.46.23-.86.36-1.18.38-.12,0-.17-.02-.19-.1,0-.03,0-.06.03-.06.02,0,.05-.01.07-.01.19-.01.44-.1.73-.28.56-.3.96-.6,1.21-.91.1-.15.16-.29.16-.43s-.07-.21-.2-.21c-.1,0-.25.05-.44.14-.39.19-.8.5-1.23.95-.43.45-.72.89-.84,1.32-.05.13-.06.27-.06.39s.06.25.16.37.28.17.5.17c.24,0,.53-.07.86-.2.94-.38,1.65-.96,2.16-1.72.05-.07.09-.08.14-.03.03.01.05.03.05.06s-.01.06-.03.09c-.24.42-.57.79-.95,1.1-.74.62-1.45.94-2.14.94-.59,0-1.02-.17-1.25-.53-.09-.14-.14-.31-.14-.51s.06-.44.16-.71c.21-.47.65-.96,1.33-1.45.68-.5,1.21-.74,1.61-.74h-.01Z"/>
    <path class="st4" d="M100.11,46.17c-.42,0-.64-.25-.64-.76s.36-1.13,1.09-1.87c.06-.06.1-.1.13-.14l.09-.13c.12-.16.17-.25.16-.3l-.03-.12c-.03-.1-.17-.17-.4-.22s-.44-.07-.58-.07c-.74,1.05-1.18,1.65-1.3,1.79-.12.15-.2.21-.23.19-.05-.02-.06-.06-.06-.09s.02-.08.07-.15c.45-.54.83-1.13,1.16-1.75-.1-.01-.17-.05-.22-.1s-.06-.15-.01-.28.16-.3.38-.52c.21-.22.39-.36.56-.44.16-.07.25-.12.3-.14.05-.01.09-.02.14-.02.1,0,.07.15-.1.45l-.49.77c.37.02.69.03.96.03h.44c.14-.01.24,0,.31.05s.08.1.05.2c-.06.16-.21.37-.44.64-.5.58-.87,1.19-1.11,1.85-.06.16-.09.29-.09.4,0,.24.09.36.27.36.06,0,.16-.05.32-.14s.43-.31.81-.65c.38-.35.68-.68.91-1.01.03-.05.07-.05.12-.03s.07.05.07.06,0,.05-.02.07c-.13.22-.35.51-.67.86-.32.35-.64.62-.95.84-.3.23-.62.35-.97.35v.02Z"/>
    <path class="st4" d="M102.05,50.58c-.07,0-.15-.01-.24-.03-.42-.1-.64-.32-.64-.66s.22-.75.65-1.26c.44-.51,1.35-1.21,2.74-2.15.77-1.58,1.27-2.69,1.48-3.33-.1.12-.29.37-.58.75s-.54.72-.77.98c-.22.27-.5.52-.81.76s-.6.36-.87.36-.47-.06-.61-.19c-.15-.12-.23-.24-.24-.38-.01-.13-.02-.24-.02-.34,0-.3.08-.61.24-.91.24-.51.58-.94,1.01-1.31.16-.15.3-.22.42-.22s.23.03.32.12c.1.12.14.22.1.3-.31.19-.67.53-1.08,1.05-.22.28-.36.64-.45,1.06,0,.06-.01.13-.01.22s.03.16.1.21c.07.06.14.08.22.08.25,0,.52-.14.81-.4.28-.28.56-.56.81-.87.25-.3.54-.66.88-1.09.32-.42.54-.69.65-.83.1-.13.21-.2.31-.2.13,0,.27.03.4.12.14.07.2.13.19.17-.02.05-.23.51-.64,1.41s-.69,1.54-.88,1.93c.2-.1.53-.36,1.01-.76s.88-.81,1.21-1.23c.08-.1.14-.1.16-.02,0,.01.01.05.01.08s-.02.09-.07.15c-.25.34-.67.76-1.23,1.27-.57.51-1.01.86-1.34,1.04-.71,1.45-1.18,2.36-1.41,2.73-.62.91-1.24,1.38-1.84,1.38ZM104.33,46.94c-.99.74-1.7,1.33-2.13,1.76-.43.43-.64.8-.64,1.11s.1.46.32.46c.16,0,.36-.08.57-.25.22-.17.42-.39.62-.67.2-.28.35-.52.45-.73s.24-.5.43-.89.3-.66.37-.79Z"/>
    <path class="st4" d="M110.15,50.58c-.07,0-.15-.01-.24-.03-.43-.12-.65-.34-.65-.67s.22-.75.66-1.25,1.35-1.21,2.75-2.14c.6-1.24,1.03-2.29,1.32-3.16-.07.08-.21.24-.4.49-.21.24-.34.4-.39.49s-.12.08-.16.01c-.01-.06,0-.12.03-.17.16-.19.37-.46.64-.82.27-.36.43-.58.49-.64.16-.15.39-.13.69.06.1.07.15.14.13.19-.47,1.12-.93,2.13-1.34,3.03.19-.1.5-.35.96-.75.45-.4.87-.81,1.23-1.23.19-.22.28-.24.28-.1,0,.21-.5.75-1.49,1.64-.58.51-.98.83-1.21.97-.71,1.45-1.18,2.36-1.41,2.73-.64.91-1.25,1.38-1.84,1.38h-.02ZM112.43,46.94c-.99.74-1.7,1.33-2.13,1.77-.43.44-.65.84-.65,1.23,0,.12.03.2.12.24.07.05.15.07.23.07s.21-.06.36-.19.29-.24.4-.37c.12-.12.21-.23.29-.34s.17-.23.28-.39.19-.29.24-.38c.06-.09.14-.23.24-.43s.17-.32.21-.39.1-.21.21-.43c.1-.22.17-.35.2-.39ZM115.85,40.77l-.1.39c0,.07-.06.2-.16.36-.12.16-.2.24-.25.24-.36,0-.53-.09-.53-.27,0-.03.17-.19.53-.46l.21-.16c.15-.12.24-.17.27-.17s.05.01.05.05v.02Z"/>
    <path class="st4" d="M118.2,44.49c.15-.3.22-.54.22-.71s-.02-.3-.06-.39c-.03-.09-.02-.17.05-.24s.16-.09.27-.07c.16.05.24.23.24.56s-.2.76-.58,1.31c0,.22.13.34.35.34s.57-.24,1.02-.72c.22-.24.35-.4.4-.49.06-.07.1-.1.14-.08.05.02.06.03.06.06,0,.08-.15.3-.45.65-.47.58-.89.87-1.25.87-.24,0-.4-.1-.51-.31-.16.17-.32.34-.49.49-.32.28-.68.4-1.08.4-.22,0-.4-.06-.56-.16-.29-.17-.44-.49-.44-.93,0-.49.16-.98.5-1.49.19-.3.42-.56.67-.79.4-.36.79-.53,1.16-.53.09,0,.17.01.25.03.24.08.37.24.37.47,0,.19-.05.29-.15.29-.05-.01-.06-.08-.06-.19,0-.15-.08-.22-.24-.22-.29,0-.66.27-1.12.8-.45.53-.73,1.06-.82,1.6-.01.09-.02.2-.02.3s.03.24.12.38c.07.14.21.22.42.22s.43-.09.66-.28.45-.42.65-.69l-.03-.07c-.03-.13-.01-.24.05-.32s.15-.1.27-.07h.01Z"/>
    <path class="st4" d="M125.14,44.98c-.32.35-.61.61-.87.81-.34.24-.69.36-1.08.36-.07,0-.17-.03-.29-.1s-.2-.17-.24-.3c-.05-.13-.06-.27-.06-.38,0-.43.08-.86.24-1.27-.02.01-.14.2-.34.53-.21.34-.45.65-.74.95s-.59.45-.89.45c-.14,0-.3-.03-.49-.12-.34-.15-.5-.42-.5-.82,0-.49.16-.99.5-1.5.34-.52.54-.79.64-.82.13-.03.24-.05.36-.05s.22.02.34.07.1.13-.05.23c-.57.52-.97,1.1-1.21,1.73-.09.24-.14.46-.14.62s.05.28.13.32c.09.05.17.07.25.07.2,0,.47-.14.81-.42.35-.28.82-.86,1.42-1.73.08-.13.23-.37.44-.73s.34-.58.37-.64c.13,0,.29.03.46.09.17.06.24.14.19.24-.39.66-.67,1.15-.83,1.47-.16.31-.27.68-.32,1.1,0,.07-.01.17-.01.29s.03.21.1.29c.13.13.3.14.52.02.22-.12.52-.35.9-.69s.68-.68.91-1.01c.03-.05.07-.05.12-.03s.07.05.07.06,0,.05-.02.07c-.13.22-.35.51-.67.86l-.02-.02Z"/>
    <path class="st4" d="M127.14,46.17c-.42,0-.64-.25-.64-.76s.36-1.13,1.09-1.87c.06-.06.1-.1.13-.14l.09-.13c.12-.16.17-.25.16-.3l-.03-.12c-.03-.1-.17-.17-.4-.22s-.44-.07-.58-.07c-.74,1.05-1.18,1.65-1.3,1.79-.12.15-.2.21-.23.19-.05-.02-.06-.06-.06-.09s.02-.08.07-.15c.45-.54.83-1.13,1.16-1.75-.1-.01-.17-.05-.22-.1s-.06-.15-.01-.28.16-.3.38-.52c.21-.22.39-.36.56-.44.16-.07.25-.12.3-.14.05-.01.09-.02.14-.02.1,0,.07.15-.1.45l-.49.77c.37.02.69.03.96.03h.44c.14-.01.24,0,.31.05s.08.1.05.2c-.06.16-.21.37-.44.64-.5.58-.87,1.19-1.11,1.85-.06.16-.09.29-.09.4,0,.24.09.36.27.36.06,0,.16-.05.32-.14s.43-.31.81-.65c.38-.35.68-.68.91-1.01.03-.05.07-.05.12-.03s.07.05.07.06,0,.05-.02.07c-.13.22-.35.51-.67.86-.32.35-.64.62-.95.84-.3.23-.62.35-.97.35v.02Z"/>
    <path class="st4" d="M132.87,42.33c.19,0,.29.1.29.3s-.09.49-.29.83-.34.65-.42.87c-.16.38-.23.68-.23.91s.03.38.1.45c.13.13.29.14.51.02s.51-.35.9-.69.69-.68.93-1.01c.03-.05.07-.05.12-.03.05.02.07.05.07.06s0,.05-.02.07c-.13.22-.35.51-.67.86-.32.35-.64.62-.93.83-.3.21-.59.31-.88.31s-.47-.07-.59-.2c-.12-.12-.17-.27-.17-.45s.01-.36.05-.53.09-.37.19-.59c.15-.36.28-.64.39-.83.12-.2.16-.32.16-.39s-.03-.09-.1-.09c-.13,0-.38.16-.75.49-.25.24-.64.69-1.13,1.35-.5.67-.79,1.02-.84,1.06-.3.15-.49.22-.56.22s-.12-.01-.12-.03,0-.06.02-.1c.01-.05.09-.27.24-.67.15-.4.3-.84.47-1.33.17-.49.28-.77.31-.88s.06-.19.07-.25c.01-.07.02-.13.05-.19.01-.05.05-.1.09-.17.05-.06.1-.09.19-.1.07,0,.17,0,.29.02s.17.07.17.15c0,.06-.05.19-.14.38s-.35.87-.79,2c.3-.36.67-.79,1.13-1.26s.84-.83,1.16-1.09c.31-.22.57-.34.76-.34l-.03.05Z"/>
    <path class="st4" d="M137.34,42.25c.45,0,.67.22.67.65,0,.22-.06.4-.19.54-.21.3-.54.58-1.01.8-.46.23-.86.36-1.18.38-.12,0-.17-.02-.19-.1,0-.03,0-.06.03-.06.02,0,.05-.01.07-.01.19-.01.44-.1.73-.28.56-.3.96-.6,1.21-.91.1-.15.16-.29.16-.43s-.07-.21-.2-.21c-.1,0-.25.05-.44.14-.39.19-.8.5-1.23.95s-.72.89-.84,1.32c-.05.13-.06.27-.06.39s.06.25.16.37.28.17.5.17c.24,0,.53-.07.86-.2.94-.38,1.65-.96,2.16-1.72.05-.07.09-.08.14-.03.03.01.05.03.05.06s-.01.06-.03.09c-.24.42-.57.79-.95,1.1-.74.62-1.45.94-2.14.94-.59,0-1.02-.17-1.25-.53-.09-.14-.14-.31-.14-.51s.06-.44.16-.71c.21-.47.65-.96,1.33-1.45.68-.5,1.21-.74,1.61-.74h-.01Z"/>
    <path class="st4" d="M138.12,50.58c-.07,0-.15-.01-.24-.03-.42-.1-.64-.32-.64-.66s.22-.75.65-1.26c.44-.51,1.35-1.21,2.74-2.15.77-1.58,1.27-2.69,1.48-3.33-.1.12-.29.37-.58.75s-.54.72-.77.98c-.22.27-.5.52-.81.76s-.6.36-.87.36-.47-.06-.61-.19c-.15-.12-.23-.24-.24-.38-.01-.13-.02-.24-.02-.34,0-.3.08-.61.24-.91.24-.51.58-.94,1.01-1.31.16-.15.3-.22.42-.22s.23.03.32.12c.1.12.14.22.1.3-.31.19-.67.53-1.08,1.05-.22.28-.36.64-.45,1.06,0,.06-.01.13-.01.22s.03.16.1.21c.07.06.14.08.22.08.25,0,.52-.14.81-.4.28-.28.56-.56.81-.87.25-.3.54-.66.88-1.09.32-.42.54-.69.65-.83.1-.13.21-.2.31-.2.13,0,.27.03.4.12.14.07.2.13.19.17-.02.05-.23.51-.64,1.41s-.69,1.54-.88,1.93c.2-.1.53-.36,1.01-.76.47-.4.88-.81,1.21-1.23.08-.1.14-.1.16-.02,0,.01.01.05.01.08s-.02.09-.07.15c-.25.34-.67.76-1.23,1.27-.57.51-1.01.86-1.34,1.04-.71,1.45-1.18,2.36-1.41,2.73-.62.91-1.24,1.38-1.84,1.38h0ZM140.4,46.94c-.99.74-1.7,1.33-2.13,1.76s-.64.8-.64,1.11.1.46.32.46c.16,0,.36-.08.57-.25.22-.17.42-.39.62-.67.2-.28.35-.52.45-.73s.24-.5.43-.89c.19-.39.3-.66.37-.79Z"/>
  </g>
  <rect class="st4" x="145.2" y="44.35" width="23.89" height=".49"/>
  <rect class="st4" x=".66" y="44.35" width="24.91" height=".49"/>
</svg>